<mxfile host="Electron" modified="2023-12-10T22:29:27.821Z" agent="Mozilla/5.0 (Windows NT 10.0; Win64; x64) AppleWebKit/537.36 (KHTML, like Gecko) draw.io/22.1.2 Chrome/114.0.5735.289 Electron/25.9.4 Safari/537.36" etag="EzyGkgjQbU7CRugwcnqg" version="22.1.2" type="device">
  <diagram name="Page-1" id="exn3ggoVIKOQM3i5nKGH">
    <mxGraphModel dx="2259" dy="1657" grid="1" gridSize="10" guides="1" tooltips="1" connect="1" arrows="1" fold="1" page="1" pageScale="1" pageWidth="850" pageHeight="1100" math="0" shadow="0">
      <root>
        <mxCell id="0" />
        <mxCell id="1" parent="0" />
        <mxCell id="nF-iXHHiCRlv0W8M6ZpC-1" value="" style="rounded=0;whiteSpace=wrap;html=1;" parent="1" vertex="1">
          <mxGeometry x="40" y="40" width="800" height="450" as="geometry" />
        </mxCell>
        <mxCell id="nF-iXHHiCRlv0W8M6ZpC-5" value="LOGIN" style="rounded=0;whiteSpace=wrap;html=1;" parent="1" vertex="1">
          <mxGeometry x="355" y="200" width="170" height="50" as="geometry" />
        </mxCell>
        <mxCell id="nF-iXHHiCRlv0W8M6ZpC-22" value="" style="rounded=0;whiteSpace=wrap;html=1;" parent="1" vertex="1">
          <mxGeometry x="40" y="1080" width="800" height="450" as="geometry" />
        </mxCell>
        <mxCell id="nF-iXHHiCRlv0W8M6ZpC-23" value="&lt;font style=&quot;font-size: 16px;&quot;&gt;Login&lt;/font&gt;" style="text;html=1;strokeColor=none;fillColor=none;align=center;verticalAlign=middle;whiteSpace=wrap;rounded=0;" parent="1" vertex="1">
          <mxGeometry x="378" y="1150" width="95" height="30" as="geometry" />
        </mxCell>
        <mxCell id="nF-iXHHiCRlv0W8M6ZpC-24" value="text input" style="rounded=0;whiteSpace=wrap;html=1;" parent="1" vertex="1">
          <mxGeometry x="338" y="1200" width="280" height="30" as="geometry" />
        </mxCell>
        <mxCell id="nF-iXHHiCRlv0W8M6ZpC-25" value="Username/Email:" style="text;html=1;strokeColor=none;fillColor=none;align=left;verticalAlign=middle;whiteSpace=wrap;rounded=0;" parent="1" vertex="1">
          <mxGeometry x="233" y="1200" width="105" height="30" as="geometry" />
        </mxCell>
        <mxCell id="DDzEvoenvucKNVs8Jguf-3" value="Password" style="text;html=1;strokeColor=none;fillColor=none;align=left;verticalAlign=middle;whiteSpace=wrap;rounded=0;" parent="1" vertex="1">
          <mxGeometry x="233" y="1240" width="105" height="30" as="geometry" />
        </mxCell>
        <mxCell id="DDzEvoenvucKNVs8Jguf-4" value="text input" style="rounded=0;whiteSpace=wrap;html=1;" parent="1" vertex="1">
          <mxGeometry x="338" y="1240" width="280" height="30" as="geometry" />
        </mxCell>
        <mxCell id="DDzEvoenvucKNVs8Jguf-5" value="Submit" style="rounded=0;whiteSpace=wrap;html=1;" parent="1" vertex="1">
          <mxGeometry x="448" y="1300" width="170" height="50" as="geometry" />
        </mxCell>
        <mxCell id="DDzEvoenvucKNVs8Jguf-6" value="Cancel" style="rounded=0;whiteSpace=wrap;html=1;" parent="1" vertex="1">
          <mxGeometry x="233" y="1300" width="170" height="50" as="geometry" />
        </mxCell>
        <mxCell id="DDzEvoenvucKNVs8Jguf-8" value="Home/Landing Page" style="text;html=1;align=center;verticalAlign=middle;resizable=0;points=[];autosize=1;strokeColor=none;fillColor=none;" parent="1" vertex="1">
          <mxGeometry x="40" y="10" width="130" height="30" as="geometry" />
        </mxCell>
        <mxCell id="DDzEvoenvucKNVs8Jguf-9" value="Login Page - Default" style="text;html=1;align=center;verticalAlign=middle;resizable=0;points=[];autosize=1;strokeColor=none;fillColor=none;" parent="1" vertex="1">
          <mxGeometry x="40" y="1050" width="130" height="30" as="geometry" />
        </mxCell>
        <mxCell id="DDzEvoenvucKNVs8Jguf-15" value="" style="rounded=0;whiteSpace=wrap;html=1;" parent="1" vertex="1">
          <mxGeometry x="880" y="40" width="800" height="450" as="geometry" />
        </mxCell>
        <mxCell id="DDzEvoenvucKNVs8Jguf-16" value="PLAY" style="rounded=0;whiteSpace=wrap;html=1;" parent="1" vertex="1">
          <mxGeometry x="1195" y="200" width="170" height="50" as="geometry" />
        </mxCell>
        <mxCell id="DDzEvoenvucKNVs8Jguf-18" value="User Dashboard - Successful Login" style="text;html=1;align=center;verticalAlign=middle;resizable=0;points=[];autosize=1;strokeColor=none;fillColor=none;" parent="1" vertex="1">
          <mxGeometry x="880" y="10" width="210" height="30" as="geometry" />
        </mxCell>
        <mxCell id="DDzEvoenvucKNVs8Jguf-19" value="Welcome &amp;lt;username&amp;gt;" style="text;html=1;align=center;verticalAlign=middle;resizable=0;points=[];autosize=1;strokeColor=none;fillColor=none;" parent="1" vertex="1">
          <mxGeometry x="890" y="100" width="140" height="30" as="geometry" />
        </mxCell>
        <mxCell id="DDzEvoenvucKNVs8Jguf-32" value="" style="rounded=0;whiteSpace=wrap;html=1;" parent="1" vertex="1">
          <mxGeometry x="880" y="1080" width="800" height="450" as="geometry" />
        </mxCell>
        <mxCell id="DDzEvoenvucKNVs8Jguf-33" value="&lt;font style=&quot;font-size: 16px;&quot;&gt;Login&lt;/font&gt;" style="text;html=1;strokeColor=none;fillColor=none;align=center;verticalAlign=middle;whiteSpace=wrap;rounded=0;" parent="1" vertex="1">
          <mxGeometry x="1218" y="1160" width="95" height="30" as="geometry" />
        </mxCell>
        <mxCell id="DDzEvoenvucKNVs8Jguf-34" value="text input" style="rounded=0;whiteSpace=wrap;html=1;" parent="1" vertex="1">
          <mxGeometry x="1178" y="1210" width="280" height="30" as="geometry" />
        </mxCell>
        <mxCell id="DDzEvoenvucKNVs8Jguf-35" value="Username/Email:" style="text;html=1;strokeColor=none;fillColor=none;align=left;verticalAlign=middle;whiteSpace=wrap;rounded=0;" parent="1" vertex="1">
          <mxGeometry x="1073" y="1210" width="105" height="30" as="geometry" />
        </mxCell>
        <mxCell id="DDzEvoenvucKNVs8Jguf-36" value="Password" style="text;html=1;strokeColor=none;fillColor=none;align=left;verticalAlign=middle;whiteSpace=wrap;rounded=0;" parent="1" vertex="1">
          <mxGeometry x="1073" y="1250" width="105" height="30" as="geometry" />
        </mxCell>
        <mxCell id="DDzEvoenvucKNVs8Jguf-37" value="text input" style="rounded=0;whiteSpace=wrap;html=1;" parent="1" vertex="1">
          <mxGeometry x="1178" y="1250" width="280" height="30" as="geometry" />
        </mxCell>
        <mxCell id="DDzEvoenvucKNVs8Jguf-38" value="Submit" style="rounded=0;whiteSpace=wrap;html=1;" parent="1" vertex="1">
          <mxGeometry x="1288" y="1310" width="170" height="50" as="geometry" />
        </mxCell>
        <mxCell id="DDzEvoenvucKNVs8Jguf-39" value="Cancel" style="rounded=0;whiteSpace=wrap;html=1;" parent="1" vertex="1">
          <mxGeometry x="1073" y="1310" width="170" height="50" as="geometry" />
        </mxCell>
        <mxCell id="DDzEvoenvucKNVs8Jguf-40" value="Login Page - Error" style="text;html=1;align=center;verticalAlign=middle;resizable=0;points=[];autosize=1;strokeColor=none;fillColor=none;" parent="1" vertex="1">
          <mxGeometry x="880" y="1050" width="120" height="30" as="geometry" />
        </mxCell>
        <mxCell id="DDzEvoenvucKNVs8Jguf-41" value="ERROR: &amp;lt;error message&amp;gt;" style="text;html=1;align=center;verticalAlign=middle;resizable=0;points=[];autosize=1;strokeColor=none;fillColor=none;" parent="1" vertex="1">
          <mxGeometry x="1185.5" y="1390" width="160" height="30" as="geometry" />
        </mxCell>
        <mxCell id="DDzEvoenvucKNVs8Jguf-42" value="" style="rounded=0;whiteSpace=wrap;html=1;" parent="1" vertex="1">
          <mxGeometry x="40" y="560" width="800" height="450" as="geometry" />
        </mxCell>
        <mxCell id="DDzEvoenvucKNVs8Jguf-43" value="&lt;font style=&quot;font-size: 16px;&quot;&gt;Register New User&lt;/font&gt;" style="text;html=1;strokeColor=none;fillColor=none;align=center;verticalAlign=middle;whiteSpace=wrap;rounded=0;" parent="1" vertex="1">
          <mxGeometry x="364" y="630" width="152" height="30" as="geometry" />
        </mxCell>
        <mxCell id="DDzEvoenvucKNVs8Jguf-44" value="text input" style="rounded=0;whiteSpace=wrap;html=1;" parent="1" vertex="1">
          <mxGeometry x="338" y="670" width="280" height="30" as="geometry" />
        </mxCell>
        <mxCell id="DDzEvoenvucKNVs8Jguf-45" value="Email Address:" style="text;html=1;strokeColor=none;fillColor=none;align=left;verticalAlign=middle;whiteSpace=wrap;rounded=0;" parent="1" vertex="1">
          <mxGeometry x="233" y="670" width="105" height="30" as="geometry" />
        </mxCell>
        <mxCell id="DDzEvoenvucKNVs8Jguf-46" value="Password:" style="text;html=1;strokeColor=none;fillColor=none;align=left;verticalAlign=middle;whiteSpace=wrap;rounded=0;" parent="1" vertex="1">
          <mxGeometry x="233" y="750" width="105" height="30" as="geometry" />
        </mxCell>
        <mxCell id="DDzEvoenvucKNVs8Jguf-47" value="text input" style="rounded=0;whiteSpace=wrap;html=1;" parent="1" vertex="1">
          <mxGeometry x="338" y="750" width="280" height="30" as="geometry" />
        </mxCell>
        <mxCell id="DDzEvoenvucKNVs8Jguf-48" value="Submit" style="rounded=0;whiteSpace=wrap;html=1;" parent="1" vertex="1">
          <mxGeometry x="448" y="840" width="170" height="50" as="geometry" />
        </mxCell>
        <mxCell id="DDzEvoenvucKNVs8Jguf-49" value="Cancel" style="rounded=0;whiteSpace=wrap;html=1;" parent="1" vertex="1">
          <mxGeometry x="233" y="840" width="170" height="50" as="geometry" />
        </mxCell>
        <mxCell id="DDzEvoenvucKNVs8Jguf-50" value="Registration Page - Default" style="text;html=1;align=center;verticalAlign=middle;resizable=0;points=[];autosize=1;strokeColor=none;fillColor=none;" parent="1" vertex="1">
          <mxGeometry x="40" y="530" width="170" height="30" as="geometry" />
        </mxCell>
        <mxCell id="DDzEvoenvucKNVs8Jguf-52" value="Confirm Password:" style="text;html=1;strokeColor=none;fillColor=none;align=left;verticalAlign=middle;whiteSpace=wrap;rounded=0;" parent="1" vertex="1">
          <mxGeometry x="233" y="790" width="105" height="30" as="geometry" />
        </mxCell>
        <mxCell id="DDzEvoenvucKNVs8Jguf-53" value="text input" style="rounded=0;whiteSpace=wrap;html=1;" parent="1" vertex="1">
          <mxGeometry x="338" y="790" width="280" height="30" as="geometry" />
        </mxCell>
        <mxCell id="DDzEvoenvucKNVs8Jguf-63" value="Registration Page - Error" style="text;html=1;align=center;verticalAlign=middle;resizable=0;points=[];autosize=1;strokeColor=none;fillColor=none;" parent="1" vertex="1">
          <mxGeometry x="880" y="530" width="160" height="30" as="geometry" />
        </mxCell>
        <mxCell id="DDzEvoenvucKNVs8Jguf-68" value="Username:" style="text;html=1;strokeColor=none;fillColor=none;align=left;verticalAlign=middle;whiteSpace=wrap;rounded=0;" parent="1" vertex="1">
          <mxGeometry x="233" y="710" width="105" height="30" as="geometry" />
        </mxCell>
        <mxCell id="DDzEvoenvucKNVs8Jguf-69" value="text input" style="rounded=0;whiteSpace=wrap;html=1;" parent="1" vertex="1">
          <mxGeometry x="338" y="710" width="280" height="30" as="geometry" />
        </mxCell>
        <mxCell id="DDzEvoenvucKNVs8Jguf-70" value="" style="rounded=0;whiteSpace=wrap;html=1;" parent="1" vertex="1">
          <mxGeometry x="880" y="560" width="800" height="450" as="geometry" />
        </mxCell>
        <mxCell id="DDzEvoenvucKNVs8Jguf-71" value="&lt;font style=&quot;font-size: 16px;&quot;&gt;Register New User&lt;/font&gt;" style="text;html=1;strokeColor=none;fillColor=none;align=center;verticalAlign=middle;whiteSpace=wrap;rounded=0;" parent="1" vertex="1">
          <mxGeometry x="1204" y="630" width="152" height="30" as="geometry" />
        </mxCell>
        <mxCell id="DDzEvoenvucKNVs8Jguf-72" value="text input" style="rounded=0;whiteSpace=wrap;html=1;" parent="1" vertex="1">
          <mxGeometry x="1178" y="670" width="280" height="30" as="geometry" />
        </mxCell>
        <mxCell id="DDzEvoenvucKNVs8Jguf-73" value="Email Address:" style="text;html=1;strokeColor=none;fillColor=none;align=left;verticalAlign=middle;whiteSpace=wrap;rounded=0;" parent="1" vertex="1">
          <mxGeometry x="1073" y="670" width="105" height="30" as="geometry" />
        </mxCell>
        <mxCell id="DDzEvoenvucKNVs8Jguf-74" value="Password:" style="text;html=1;strokeColor=none;fillColor=none;align=left;verticalAlign=middle;whiteSpace=wrap;rounded=0;" parent="1" vertex="1">
          <mxGeometry x="1073" y="750" width="105" height="30" as="geometry" />
        </mxCell>
        <mxCell id="DDzEvoenvucKNVs8Jguf-75" value="text input" style="rounded=0;whiteSpace=wrap;html=1;" parent="1" vertex="1">
          <mxGeometry x="1178" y="750" width="280" height="30" as="geometry" />
        </mxCell>
        <mxCell id="DDzEvoenvucKNVs8Jguf-76" value="Submit" style="rounded=0;whiteSpace=wrap;html=1;" parent="1" vertex="1">
          <mxGeometry x="1288" y="840" width="170" height="50" as="geometry" />
        </mxCell>
        <mxCell id="DDzEvoenvucKNVs8Jguf-77" value="Cancel" style="rounded=0;whiteSpace=wrap;html=1;" parent="1" vertex="1">
          <mxGeometry x="1073" y="840" width="170" height="50" as="geometry" />
        </mxCell>
        <mxCell id="DDzEvoenvucKNVs8Jguf-79" value="Confirm Password:" style="text;html=1;strokeColor=none;fillColor=none;align=left;verticalAlign=middle;whiteSpace=wrap;rounded=0;" parent="1" vertex="1">
          <mxGeometry x="1073" y="790" width="105" height="30" as="geometry" />
        </mxCell>
        <mxCell id="DDzEvoenvucKNVs8Jguf-80" value="text input" style="rounded=0;whiteSpace=wrap;html=1;" parent="1" vertex="1">
          <mxGeometry x="1178" y="790" width="280" height="30" as="geometry" />
        </mxCell>
        <mxCell id="DDzEvoenvucKNVs8Jguf-81" value="Username:" style="text;html=1;strokeColor=none;fillColor=none;align=left;verticalAlign=middle;whiteSpace=wrap;rounded=0;" parent="1" vertex="1">
          <mxGeometry x="1073" y="710" width="105" height="30" as="geometry" />
        </mxCell>
        <mxCell id="DDzEvoenvucKNVs8Jguf-82" value="text input" style="rounded=0;whiteSpace=wrap;html=1;" parent="1" vertex="1">
          <mxGeometry x="1178" y="710" width="280" height="30" as="geometry" />
        </mxCell>
        <mxCell id="DDzEvoenvucKNVs8Jguf-83" value="ERROR: &amp;lt;error message&amp;gt;" style="text;html=1;align=center;verticalAlign=middle;resizable=0;points=[];autosize=1;strokeColor=none;fillColor=none;" parent="1" vertex="1">
          <mxGeometry x="1185.5" y="920" width="160" height="30" as="geometry" />
        </mxCell>
        <mxCell id="ypEfQas9TFvf1LkHNegp-1" value="Navbar" style="rounded=0;whiteSpace=wrap;html=1;" parent="1" vertex="1">
          <mxGeometry x="40" y="40" width="800" height="50" as="geometry" />
        </mxCell>
        <mxCell id="ypEfQas9TFvf1LkHNegp-2" value="MiINESWEEPER" style="text;html=1;align=center;verticalAlign=middle;resizable=0;points=[];autosize=1;strokeColor=none;fillColor=none;" parent="1" vertex="1">
          <mxGeometry x="40" y="50" width="120" height="30" as="geometry" />
        </mxCell>
        <mxCell id="ypEfQas9TFvf1LkHNegp-3" value="Navbar" style="rounded=0;whiteSpace=wrap;html=1;" parent="1" vertex="1">
          <mxGeometry x="40" y="1080" width="800" height="50" as="geometry" />
        </mxCell>
        <mxCell id="ypEfQas9TFvf1LkHNegp-4" value="MiINESWEEPER" style="text;html=1;align=center;verticalAlign=middle;resizable=0;points=[];autosize=1;strokeColor=none;fillColor=none;" parent="1" vertex="1">
          <mxGeometry x="40" y="1090" width="120" height="30" as="geometry" />
        </mxCell>
        <mxCell id="ypEfQas9TFvf1LkHNegp-5" value="Navbar" style="rounded=0;whiteSpace=wrap;html=1;" parent="1" vertex="1">
          <mxGeometry x="880" y="40" width="800" height="50" as="geometry" />
        </mxCell>
        <mxCell id="ypEfQas9TFvf1LkHNegp-6" value="MiINESWEEPER" style="text;html=1;align=center;verticalAlign=middle;resizable=0;points=[];autosize=1;strokeColor=none;fillColor=none;" parent="1" vertex="1">
          <mxGeometry x="880" y="50" width="120" height="30" as="geometry" />
        </mxCell>
        <mxCell id="ypEfQas9TFvf1LkHNegp-7" value="Navbar" style="rounded=0;whiteSpace=wrap;html=1;" parent="1" vertex="1">
          <mxGeometry x="880" y="1080" width="800" height="50" as="geometry" />
        </mxCell>
        <mxCell id="ypEfQas9TFvf1LkHNegp-8" value="MiINESWEEPER" style="text;html=1;align=center;verticalAlign=middle;resizable=0;points=[];autosize=1;strokeColor=none;fillColor=none;" parent="1" vertex="1">
          <mxGeometry x="880" y="1090" width="120" height="30" as="geometry" />
        </mxCell>
        <mxCell id="ypEfQas9TFvf1LkHNegp-9" value="Navbar" style="rounded=0;whiteSpace=wrap;html=1;" parent="1" vertex="1">
          <mxGeometry x="40" y="560" width="800" height="50" as="geometry" />
        </mxCell>
        <mxCell id="ypEfQas9TFvf1LkHNegp-10" value="MiINESWEEPER" style="text;html=1;align=center;verticalAlign=middle;resizable=0;points=[];autosize=1;strokeColor=none;fillColor=none;" parent="1" vertex="1">
          <mxGeometry x="40" y="570" width="120" height="30" as="geometry" />
        </mxCell>
        <mxCell id="ypEfQas9TFvf1LkHNegp-11" value="Navbar" style="rounded=0;whiteSpace=wrap;html=1;" parent="1" vertex="1">
          <mxGeometry x="880" y="560" width="800" height="50" as="geometry" />
        </mxCell>
        <mxCell id="ypEfQas9TFvf1LkHNegp-12" value="MiINESWEEPER" style="text;html=1;align=center;verticalAlign=middle;resizable=0;points=[];autosize=1;strokeColor=none;fillColor=none;" parent="1" vertex="1">
          <mxGeometry x="880" y="570" width="120" height="30" as="geometry" />
        </mxCell>
        <mxCell id="djR8gq2mdcgwIwiNso4Z-1" value="REGISTER" style="rounded=0;whiteSpace=wrap;html=1;" parent="1" vertex="1">
          <mxGeometry x="355" y="270" width="170" height="50" as="geometry" />
        </mxCell>
        <mxCell id="joO696_4VvRe2etLfbnj-2" value="Need to Register a New User?" style="text;html=1;align=left;verticalAlign=middle;resizable=0;points=[];autosize=1;strokeColor=none;fillColor=none;" parent="1" vertex="1">
          <mxGeometry x="233" y="1350" width="190" height="30" as="geometry" />
        </mxCell>
        <mxCell id="joO696_4VvRe2etLfbnj-3" value="Need to Register a New User?" style="text;html=1;align=left;verticalAlign=middle;resizable=0;points=[];autosize=1;strokeColor=none;fillColor=none;" parent="1" vertex="1">
          <mxGeometry x="1073" y="1360" width="190" height="30" as="geometry" />
        </mxCell>
        <mxCell id="joO696_4VvRe2etLfbnj-4" value="Already Registered? Login Here" style="text;html=1;align=left;verticalAlign=middle;resizable=0;points=[];autosize=1;strokeColor=none;fillColor=none;" parent="1" vertex="1">
          <mxGeometry x="233" y="890" width="190" height="30" as="geometry" />
        </mxCell>
        <mxCell id="joO696_4VvRe2etLfbnj-5" value="Already Registered? Login Here" style="text;html=1;align=left;verticalAlign=middle;resizable=0;points=[];autosize=1;strokeColor=none;fillColor=none;" parent="1" vertex="1">
          <mxGeometry x="1073" y="890" width="190" height="30" as="geometry" />
        </mxCell>
        <mxCell id="epAWxI0zBDAU6cTDsfpr-1" value="DASHBOARD" style="text;html=1;align=center;verticalAlign=middle;resizable=0;points=[];autosize=1;strokeColor=none;fillColor=none;" parent="1" vertex="1">
          <mxGeometry x="1230" y="130" width="100" height="30" as="geometry" />
        </mxCell>
        <mxCell id="limPKEcuSx7z740NgW69-2" value="" style="rounded=0;whiteSpace=wrap;html=1;" parent="1" vertex="1">
          <mxGeometry x="1720" y="40" width="800" height="450" as="geometry" />
        </mxCell>
        <mxCell id="limPKEcuSx7z740NgW69-4" value="Game" style="text;html=1;align=center;verticalAlign=middle;resizable=0;points=[];autosize=1;strokeColor=none;fillColor=none;" parent="1" vertex="1">
          <mxGeometry x="1720" y="10" width="60" height="30" as="geometry" />
        </mxCell>
        <mxCell id="limPKEcuSx7z740NgW69-6" value="Navbar" style="rounded=0;whiteSpace=wrap;html=1;" parent="1" vertex="1">
          <mxGeometry x="1720" y="40" width="800" height="50" as="geometry" />
        </mxCell>
        <mxCell id="limPKEcuSx7z740NgW69-7" value="MIINESWEEPER" style="text;html=1;align=center;verticalAlign=middle;resizable=0;points=[];autosize=1;strokeColor=none;fillColor=none;" parent="1" vertex="1">
          <mxGeometry x="1720" y="50" width="120" height="30" as="geometry" />
        </mxCell>
        <mxCell id="limPKEcuSx7z740NgW69-9" value="" style="whiteSpace=wrap;html=1;aspect=fixed;" parent="1" vertex="1">
          <mxGeometry x="1985" y="130" width="30" height="30" as="geometry" />
        </mxCell>
        <mxCell id="limPKEcuSx7z740NgW69-10" value="" style="whiteSpace=wrap;html=1;aspect=fixed;" parent="1" vertex="1">
          <mxGeometry x="2015" y="130" width="30" height="30" as="geometry" />
        </mxCell>
        <mxCell id="limPKEcuSx7z740NgW69-11" value="" style="whiteSpace=wrap;html=1;aspect=fixed;" parent="1" vertex="1">
          <mxGeometry x="2045" y="130" width="30" height="30" as="geometry" />
        </mxCell>
        <mxCell id="limPKEcuSx7z740NgW69-12" value="" style="whiteSpace=wrap;html=1;aspect=fixed;" parent="1" vertex="1">
          <mxGeometry x="2075" y="130" width="30" height="30" as="geometry" />
        </mxCell>
        <mxCell id="limPKEcuSx7z740NgW69-13" value="" style="whiteSpace=wrap;html=1;aspect=fixed;" parent="1" vertex="1">
          <mxGeometry x="2105" y="130" width="30" height="30" as="geometry" />
        </mxCell>
        <mxCell id="limPKEcuSx7z740NgW69-14" value="" style="whiteSpace=wrap;html=1;aspect=fixed;" parent="1" vertex="1">
          <mxGeometry x="2135" y="130" width="30" height="30" as="geometry" />
        </mxCell>
        <mxCell id="limPKEcuSx7z740NgW69-15" value="" style="whiteSpace=wrap;html=1;aspect=fixed;" parent="1" vertex="1">
          <mxGeometry x="2165" y="130" width="30" height="30" as="geometry" />
        </mxCell>
        <mxCell id="limPKEcuSx7z740NgW69-16" value="" style="whiteSpace=wrap;html=1;aspect=fixed;" parent="1" vertex="1">
          <mxGeometry x="2195" y="130" width="30" height="30" as="geometry" />
        </mxCell>
        <mxCell id="limPKEcuSx7z740NgW69-17" value="" style="whiteSpace=wrap;html=1;aspect=fixed;" parent="1" vertex="1">
          <mxGeometry x="1985" y="160" width="30" height="30" as="geometry" />
        </mxCell>
        <mxCell id="limPKEcuSx7z740NgW69-18" value="" style="whiteSpace=wrap;html=1;aspect=fixed;" parent="1" vertex="1">
          <mxGeometry x="2015" y="160" width="30" height="30" as="geometry" />
        </mxCell>
        <mxCell id="limPKEcuSx7z740NgW69-19" value="" style="whiteSpace=wrap;html=1;aspect=fixed;" parent="1" vertex="1">
          <mxGeometry x="2045" y="160" width="30" height="30" as="geometry" />
        </mxCell>
        <mxCell id="limPKEcuSx7z740NgW69-20" value="" style="whiteSpace=wrap;html=1;aspect=fixed;" parent="1" vertex="1">
          <mxGeometry x="2075" y="160" width="30" height="30" as="geometry" />
        </mxCell>
        <mxCell id="limPKEcuSx7z740NgW69-21" value="" style="whiteSpace=wrap;html=1;aspect=fixed;" parent="1" vertex="1">
          <mxGeometry x="2105" y="160" width="30" height="30" as="geometry" />
        </mxCell>
        <mxCell id="limPKEcuSx7z740NgW69-22" value="" style="whiteSpace=wrap;html=1;aspect=fixed;" parent="1" vertex="1">
          <mxGeometry x="2135" y="160" width="30" height="30" as="geometry" />
        </mxCell>
        <mxCell id="limPKEcuSx7z740NgW69-23" value="" style="whiteSpace=wrap;html=1;aspect=fixed;" parent="1" vertex="1">
          <mxGeometry x="2165" y="160" width="30" height="30" as="geometry" />
        </mxCell>
        <mxCell id="limPKEcuSx7z740NgW69-24" value="" style="whiteSpace=wrap;html=1;aspect=fixed;" parent="1" vertex="1">
          <mxGeometry x="2195" y="160" width="30" height="30" as="geometry" />
        </mxCell>
        <mxCell id="limPKEcuSx7z740NgW69-25" value="" style="whiteSpace=wrap;html=1;aspect=fixed;" parent="1" vertex="1">
          <mxGeometry x="1985" y="190" width="30" height="30" as="geometry" />
        </mxCell>
        <mxCell id="limPKEcuSx7z740NgW69-26" value="" style="whiteSpace=wrap;html=1;aspect=fixed;" parent="1" vertex="1">
          <mxGeometry x="2015" y="190" width="30" height="30" as="geometry" />
        </mxCell>
        <mxCell id="limPKEcuSx7z740NgW69-27" value="" style="whiteSpace=wrap;html=1;aspect=fixed;" parent="1" vertex="1">
          <mxGeometry x="2045" y="190" width="30" height="30" as="geometry" />
        </mxCell>
        <mxCell id="limPKEcuSx7z740NgW69-28" value="" style="whiteSpace=wrap;html=1;aspect=fixed;" parent="1" vertex="1">
          <mxGeometry x="2075" y="190" width="30" height="30" as="geometry" />
        </mxCell>
        <mxCell id="limPKEcuSx7z740NgW69-29" value="" style="whiteSpace=wrap;html=1;aspect=fixed;" parent="1" vertex="1">
          <mxGeometry x="2105" y="190" width="30" height="30" as="geometry" />
        </mxCell>
        <mxCell id="limPKEcuSx7z740NgW69-30" value="" style="whiteSpace=wrap;html=1;aspect=fixed;" parent="1" vertex="1">
          <mxGeometry x="2135" y="190" width="30" height="30" as="geometry" />
        </mxCell>
        <mxCell id="limPKEcuSx7z740NgW69-31" value="" style="whiteSpace=wrap;html=1;aspect=fixed;" parent="1" vertex="1">
          <mxGeometry x="2165" y="190" width="30" height="30" as="geometry" />
        </mxCell>
        <mxCell id="limPKEcuSx7z740NgW69-32" value="" style="whiteSpace=wrap;html=1;aspect=fixed;" parent="1" vertex="1">
          <mxGeometry x="2195" y="190" width="30" height="30" as="geometry" />
        </mxCell>
        <mxCell id="limPKEcuSx7z740NgW69-33" value="" style="whiteSpace=wrap;html=1;aspect=fixed;" parent="1" vertex="1">
          <mxGeometry x="1985" y="220" width="30" height="30" as="geometry" />
        </mxCell>
        <mxCell id="limPKEcuSx7z740NgW69-34" value="" style="whiteSpace=wrap;html=1;aspect=fixed;" parent="1" vertex="1">
          <mxGeometry x="2015" y="220" width="30" height="30" as="geometry" />
        </mxCell>
        <mxCell id="limPKEcuSx7z740NgW69-35" value="" style="whiteSpace=wrap;html=1;aspect=fixed;" parent="1" vertex="1">
          <mxGeometry x="2045" y="220" width="30" height="30" as="geometry" />
        </mxCell>
        <mxCell id="limPKEcuSx7z740NgW69-36" value="" style="whiteSpace=wrap;html=1;aspect=fixed;" parent="1" vertex="1">
          <mxGeometry x="2075" y="220" width="30" height="30" as="geometry" />
        </mxCell>
        <mxCell id="limPKEcuSx7z740NgW69-37" value="" style="whiteSpace=wrap;html=1;aspect=fixed;" parent="1" vertex="1">
          <mxGeometry x="2105" y="220" width="30" height="30" as="geometry" />
        </mxCell>
        <mxCell id="limPKEcuSx7z740NgW69-38" value="" style="whiteSpace=wrap;html=1;aspect=fixed;" parent="1" vertex="1">
          <mxGeometry x="2135" y="220" width="30" height="30" as="geometry" />
        </mxCell>
        <mxCell id="limPKEcuSx7z740NgW69-39" value="" style="whiteSpace=wrap;html=1;aspect=fixed;" parent="1" vertex="1">
          <mxGeometry x="2165" y="220" width="30" height="30" as="geometry" />
        </mxCell>
        <mxCell id="limPKEcuSx7z740NgW69-40" value="" style="whiteSpace=wrap;html=1;aspect=fixed;" parent="1" vertex="1">
          <mxGeometry x="2195" y="220" width="30" height="30" as="geometry" />
        </mxCell>
        <mxCell id="limPKEcuSx7z740NgW69-41" value="" style="whiteSpace=wrap;html=1;aspect=fixed;" parent="1" vertex="1">
          <mxGeometry x="1985" y="250" width="30" height="30" as="geometry" />
        </mxCell>
        <mxCell id="limPKEcuSx7z740NgW69-42" value="" style="whiteSpace=wrap;html=1;aspect=fixed;" parent="1" vertex="1">
          <mxGeometry x="2015" y="250" width="30" height="30" as="geometry" />
        </mxCell>
        <mxCell id="limPKEcuSx7z740NgW69-43" value="" style="whiteSpace=wrap;html=1;aspect=fixed;" parent="1" vertex="1">
          <mxGeometry x="2045" y="250" width="30" height="30" as="geometry" />
        </mxCell>
        <mxCell id="limPKEcuSx7z740NgW69-44" value="" style="whiteSpace=wrap;html=1;aspect=fixed;" parent="1" vertex="1">
          <mxGeometry x="2075" y="250" width="30" height="30" as="geometry" />
        </mxCell>
        <mxCell id="limPKEcuSx7z740NgW69-45" value="" style="whiteSpace=wrap;html=1;aspect=fixed;" parent="1" vertex="1">
          <mxGeometry x="2105" y="250" width="30" height="30" as="geometry" />
        </mxCell>
        <mxCell id="limPKEcuSx7z740NgW69-46" value="" style="whiteSpace=wrap;html=1;aspect=fixed;" parent="1" vertex="1">
          <mxGeometry x="2135" y="250" width="30" height="30" as="geometry" />
        </mxCell>
        <mxCell id="limPKEcuSx7z740NgW69-47" value="" style="whiteSpace=wrap;html=1;aspect=fixed;" parent="1" vertex="1">
          <mxGeometry x="2165" y="250" width="30" height="30" as="geometry" />
        </mxCell>
        <mxCell id="limPKEcuSx7z740NgW69-48" value="" style="whiteSpace=wrap;html=1;aspect=fixed;" parent="1" vertex="1">
          <mxGeometry x="2195" y="250" width="30" height="30" as="geometry" />
        </mxCell>
        <mxCell id="limPKEcuSx7z740NgW69-49" value="" style="whiteSpace=wrap;html=1;aspect=fixed;" parent="1" vertex="1">
          <mxGeometry x="1985" y="280" width="30" height="30" as="geometry" />
        </mxCell>
        <mxCell id="limPKEcuSx7z740NgW69-50" value="" style="whiteSpace=wrap;html=1;aspect=fixed;" parent="1" vertex="1">
          <mxGeometry x="2015" y="280" width="30" height="30" as="geometry" />
        </mxCell>
        <mxCell id="limPKEcuSx7z740NgW69-51" value="" style="whiteSpace=wrap;html=1;aspect=fixed;" parent="1" vertex="1">
          <mxGeometry x="2045" y="280" width="30" height="30" as="geometry" />
        </mxCell>
        <mxCell id="limPKEcuSx7z740NgW69-52" value="" style="whiteSpace=wrap;html=1;aspect=fixed;" parent="1" vertex="1">
          <mxGeometry x="2075" y="280" width="30" height="30" as="geometry" />
        </mxCell>
        <mxCell id="limPKEcuSx7z740NgW69-53" value="" style="whiteSpace=wrap;html=1;aspect=fixed;" parent="1" vertex="1">
          <mxGeometry x="2105" y="280" width="30" height="30" as="geometry" />
        </mxCell>
        <mxCell id="limPKEcuSx7z740NgW69-54" value="" style="whiteSpace=wrap;html=1;aspect=fixed;" parent="1" vertex="1">
          <mxGeometry x="2135" y="280" width="30" height="30" as="geometry" />
        </mxCell>
        <mxCell id="limPKEcuSx7z740NgW69-55" value="" style="whiteSpace=wrap;html=1;aspect=fixed;" parent="1" vertex="1">
          <mxGeometry x="2165" y="280" width="30" height="30" as="geometry" />
        </mxCell>
        <mxCell id="limPKEcuSx7z740NgW69-56" value="" style="whiteSpace=wrap;html=1;aspect=fixed;" parent="1" vertex="1">
          <mxGeometry x="2195" y="280" width="30" height="30" as="geometry" />
        </mxCell>
        <mxCell id="limPKEcuSx7z740NgW69-57" value="" style="whiteSpace=wrap;html=1;aspect=fixed;" parent="1" vertex="1">
          <mxGeometry x="1985" y="310" width="30" height="30" as="geometry" />
        </mxCell>
        <mxCell id="limPKEcuSx7z740NgW69-58" value="" style="whiteSpace=wrap;html=1;aspect=fixed;" parent="1" vertex="1">
          <mxGeometry x="2015" y="310" width="30" height="30" as="geometry" />
        </mxCell>
        <mxCell id="limPKEcuSx7z740NgW69-59" value="" style="whiteSpace=wrap;html=1;aspect=fixed;" parent="1" vertex="1">
          <mxGeometry x="2045" y="310" width="30" height="30" as="geometry" />
        </mxCell>
        <mxCell id="limPKEcuSx7z740NgW69-60" value="" style="whiteSpace=wrap;html=1;aspect=fixed;" parent="1" vertex="1">
          <mxGeometry x="2075" y="310" width="30" height="30" as="geometry" />
        </mxCell>
        <mxCell id="limPKEcuSx7z740NgW69-61" value="" style="whiteSpace=wrap;html=1;aspect=fixed;" parent="1" vertex="1">
          <mxGeometry x="2105" y="310" width="30" height="30" as="geometry" />
        </mxCell>
        <mxCell id="limPKEcuSx7z740NgW69-62" value="" style="whiteSpace=wrap;html=1;aspect=fixed;" parent="1" vertex="1">
          <mxGeometry x="2135" y="310" width="30" height="30" as="geometry" />
        </mxCell>
        <mxCell id="limPKEcuSx7z740NgW69-63" value="" style="whiteSpace=wrap;html=1;aspect=fixed;" parent="1" vertex="1">
          <mxGeometry x="2165" y="310" width="30" height="30" as="geometry" />
        </mxCell>
        <mxCell id="limPKEcuSx7z740NgW69-64" value="" style="whiteSpace=wrap;html=1;aspect=fixed;" parent="1" vertex="1">
          <mxGeometry x="2195" y="310" width="30" height="30" as="geometry" />
        </mxCell>
        <mxCell id="limPKEcuSx7z740NgW69-65" value="" style="whiteSpace=wrap;html=1;aspect=fixed;" parent="1" vertex="1">
          <mxGeometry x="1985" y="340" width="30" height="30" as="geometry" />
        </mxCell>
        <mxCell id="limPKEcuSx7z740NgW69-66" value="" style="whiteSpace=wrap;html=1;aspect=fixed;" parent="1" vertex="1">
          <mxGeometry x="2015" y="340" width="30" height="30" as="geometry" />
        </mxCell>
        <mxCell id="limPKEcuSx7z740NgW69-67" value="" style="whiteSpace=wrap;html=1;aspect=fixed;" parent="1" vertex="1">
          <mxGeometry x="2045" y="340" width="30" height="30" as="geometry" />
        </mxCell>
        <mxCell id="limPKEcuSx7z740NgW69-68" value="" style="whiteSpace=wrap;html=1;aspect=fixed;" parent="1" vertex="1">
          <mxGeometry x="2075" y="340" width="30" height="30" as="geometry" />
        </mxCell>
        <mxCell id="limPKEcuSx7z740NgW69-69" value="" style="whiteSpace=wrap;html=1;aspect=fixed;" parent="1" vertex="1">
          <mxGeometry x="2105" y="340" width="30" height="30" as="geometry" />
        </mxCell>
        <mxCell id="limPKEcuSx7z740NgW69-70" value="" style="whiteSpace=wrap;html=1;aspect=fixed;" parent="1" vertex="1">
          <mxGeometry x="2135" y="340" width="30" height="30" as="geometry" />
        </mxCell>
        <mxCell id="limPKEcuSx7z740NgW69-71" value="" style="whiteSpace=wrap;html=1;aspect=fixed;" parent="1" vertex="1">
          <mxGeometry x="2165" y="340" width="30" height="30" as="geometry" />
        </mxCell>
        <mxCell id="limPKEcuSx7z740NgW69-72" value="" style="whiteSpace=wrap;html=1;aspect=fixed;" parent="1" vertex="1">
          <mxGeometry x="2195" y="340" width="30" height="30" as="geometry" />
        </mxCell>
        <mxCell id="limPKEcuSx7z740NgW69-74" value="Quit" style="rounded=1;whiteSpace=wrap;html=1;" parent="1" vertex="1">
          <mxGeometry x="2080.5" y="390" width="50" height="20" as="geometry" />
        </mxCell>
      </root>
    </mxGraphModel>
  </diagram>
</mxfile>
